# xmcd CD database file generated by OrangeCD 6.2
#
# Track frame offsets:
#	150
#	20899
#	41350
#	56021
#	70053
#	100985
#	117365
#	131904
#	148800
#	163924
#	177834
#	194440
#	213641
#	226976
#	247863
#
# Disc length: 3517 seconds
#
# Revision: 1
# Processed by: cddbd v1.5.2PL0 Copyright (c) Steve Scherf et al.
# Submitted via: OrangeCD 6.2
#
DISCID=e20dbb0f
DTITLE=Various Artist - The Ultimate Zydeco Party
DYEAR=2003
DGENRE=Country
TTITLE0=Rockin' Dopsie, Jr. - Jambalaya
TTITLE1=Beau Jocque - Pine Point Trail Ride
TTITLE2=Rockin' Dopsie, Jr. - Zydeco Boogaloo
TTITLE3=Rockin' Sidney - Squeeze That Thang
TTITLE4=Beau Jocque - No Good Woman
TTITLE5=Thomas "Big Hat" Fields - Mom Et Pop
TTITLE6=Nolton Simien - Tee Gallow
TTITLE7=Fernest Arceneaux - Going Back To Big Mamou
TTITLE8=Rockin' Sidney - Don't Mess With My Tush
TTITLE9=Zydeco All Stars - Hot Stepping Zydeco
TTITLE10=Rockin' Dopsie, Jr. - They All Ask'd For You
TTITLE11=Beau Jocque - Morning Train
TTITLE12=Fernerst Arceneaux - Don't Mess With My Toot Toot
TTITLE13=Rockin' Dopsie, Jr. - Fire
TTITLE14=Beau Jocque - Hot Tamale Baby
EXTD=
EXTT0=
EXTT1=
EXTT2=
EXTT3=
EXTT4=
EXTT5=
EXTT6=
EXTT7=
EXTT8=
EXTT9=
EXTT10=
EXTT11=
EXTT12=
EXTT13=
EXTT14=
PLAYORDER=
